<svg width="32" height="32" viewBox="0 0 32 32" fill="none" xmlns="http://www.w3.org/2000/svg">
<circle cx="16" cy="16" r="16" fill="url(#paint0_linear_18_9)"/>
<path d="M18.673 9.64153C18.6715 9.64121 18.6702 9.64078 18.6688 9.64024C18.6051 9.61477 18.5317 9.59998 18.4546 9.59998C18.2067 9.59998 17.9943 9.75295 17.9069 9.97013L17.9055 9.9739L13.0638 22.2767C13.0374 22.3414 13.0218 22.4164 13.0218 22.4953C13.0218 22.8211 13.2857 23.0854 13.6119 23.0854C13.8612 23.0854 14.0746 22.9306 14.161 22.712L14.1625 22.7082L19.0051 10.4064C19.0311 10.3426 19.0457 10.2685 19.0457 10.1906C19.0457 9.94304 18.8932 9.73065 18.6771 9.64281C18.6758 9.64227 18.6744 9.64184 18.673 9.64153V9.64153ZM13.1129 19.2149V19.2149C11.4728 17.5751 11.3849 14.9445 12.9119 13.1989L13.1393 12.9389C13.23 12.8355 13.2852 12.6995 13.2852 12.5503C13.2852 12.2246 13.0208 11.9602 12.6951 11.9602C12.5185 11.9602 12.3599 12.0381 12.2517 12.1608L8.94635 15.9388C8.8557 16.0422 8.79999 16.1782 8.79999 16.3274C8.79999 16.4903 8.86609 16.638 8.97279 16.7447L12.2777 20.0501C12.3844 20.1568 12.5322 20.2229 12.6951 20.2229C13.0213 20.2229 13.2857 19.9585 13.2857 19.6323C13.2857 19.4689 13.2201 19.3221 13.1129 19.2149ZM23.0539 15.939C23.0541 15.9391 23.0542 15.9389 23.0541 15.9387L19.7497 12.1622C19.6411 12.0381 19.482 11.9606 19.3054 11.9606C18.9791 11.9606 18.7147 12.225 18.7147 12.5513C18.7147 12.7005 18.77 12.8369 18.8611 12.9408L19.0879 13.2C20.6151 14.9454 20.5273 17.5761 18.8871 19.2159V19.2159C18.7804 19.3226 18.7143 19.4703 18.7143 19.6332C18.7143 19.9595 18.9787 20.2239 19.3049 20.2239C19.4678 20.2239 19.6156 20.1578 19.7223 20.0511L23.0272 16.7457C23.1339 16.639 23.2 16.4912 23.2 16.3283C23.2 16.1794 23.1449 16.0432 23.0536 15.9394C23.0535 15.9392 23.0537 15.939 23.0539 15.939V15.939Z" fill="#141C25"/>
<defs>
<linearGradient id="paint0_linear_18_9" x1="0" y1="16" x2="32" y2="16" gradientUnits="userSpaceOnUse">
<stop offset="0.24" stop-color="#F8D56C"/>
<stop offset="0.76" stop-color="#6872DE"/>
</linearGradient>
</defs>
</svg>
